<svg xmlns="http://www.w3.org/2000/svg" viewBox="0 0 325 325" width="40" height="40">
  <circle cx="162.5" cy="162.5" r="162.5" fill="#000"/>
  <path d="M162.5 60c56.7 0 102.5 45.8 102.5 102.5S219.2 265 162.5 265 60 219.2 60 162.5 105.8 60 162.5 60zm0 20C116.2 80 80 116.2 80 162.5S116.2 245 162.5 245 245 208.8 245 162.5 208.8 80 162.5 80z" fill="#FFA726"/>
  <path d="M162.5 110c29 0 52.5 23.5 52.5 52.5S191.5 215 162.5 215 110 191.5 110 162.5 133.5 110 162.5 110zm0 15c-20.7 0-37.5 16.8-37.5 37.5S141.8 200 162.5 200 200 183.2 200 162.5 183.2 125 162.5 125z" fill="#FFA726"/>
  <path d="M162.5 140c12.4 0 22.5 10.1 22.5 22.5S174.9 185 162.5 185 140 174.9 140 162.5 150.1 140 162.5 140zm0 10c-6.9 0-12.5 5.6-12.5 12.5s5.6 12.5 12.5 12.5 12.5-5.6 12.5-12.5-5.6-12.5-12.5-12.5z" fill="#FFA726"/>
  <polygon points="210,100 250,80 230,120" fill="#FFA726"/>
</svg>
