<?xml version="1.0" encoding="UTF-8"?>
<svg id="Calque_1" data-name="Calque 1" xmlns="http://www.w3.org/2000/svg" viewBox="0 0 1093.68 1094.09">
  <defs>
    <style>
      .cls-1 {
        fill: #f5a529;
      }
    </style>
  </defs>
  <path d="M1010.06,835.68c-4.19,10.72-11.55,19.49-18.11,28.69-34.33,48.18-75.52,89.6-123.3,124.47-2.54,1.86-5.41,3.25-8.14,4.87-5.46-.12-9.95-2.05-14.46-5.48-14.88-11.33-29.32-23.3-46.58-34.77,.45,17.37,3.86,32.52,5.39,47.87,.96,9.59,5.17,19.59-2.16,28.62-67.1,35.69-138.67,55.86-214.33,61.81-3.15,.24-6.35-.05-9.54-.1-2.75-2.11-6.13-3.2-7.83-6.82-9.19-19.56-16.53-39.83-23.89-58.15-6.02,19.12-15.12,39.01-23.56,59.15-1.41,3.36-4.91,3.85-7.33,5.79-38.61-.07-76.06-7.88-113.12-17.63-41.8-10.98-81.47-27.42-119.35-48.22-4.7-6.84-5.74-14.11-3.95-22.31,2.89-13.21,3.22-26.81,5.45-40.14,.4-2.37,1.84-5.38-.57-7-3.01-2.04-5.29,.99-7.38,2.63-11.45,9.03-23.27,17.59-34.71,26.62-4.94,3.88-10.04,6.56-16.44,3.78-56.38-41.83-104.16-91.65-141.28-151.46-1.36-8.25,3.58-14.16,7.95-20.03,8.25-11.07,16.2-22.34,24.64-33.27,2.51-3.25,5.6-6.4,6.33-12.08-15.49,.42-30.14,4.4-45.03,6.19-8.7,1.04-17.37,4.44-25.89-.57-13.66-25.06-22.52-51.98-30.57-79.17-11.87-40.06-18.55-80.98-20.71-122.68-.19-3.86,.33-7.74,.52-11.62,2.54-6.86,8.91-8.87,14.76-11.26,12.82-5.26,25.77-10.21,38.58-15.56,3.03-1.27,8.07-1.34,8-5.74-.05-3.6-4.66-3.78-7.4-5.17-13.66-6.93-28.28-11.57-42.25-17.75-4.37-1.93-8.23-4.05-10.39-8.49-4.49-4.82,.24-9.4,.71-13.92,5.79-55.37,20.15-108.53,42.39-159.57,5.74-7.69,13.61-7.41,22.06-6.53,16.77,1.76,33.64,2.38,53.06,3.72-7.83-12.77-17.66-20.53-24.76-30.38-6.26-8.68-16.41-14.77-18.03-26.61,.35-6.11,4.8-10.13,7.8-14.79,38.61-60.19,86.8-111.28,145.52-152.26,5.67-1.91,10.16,.31,14.74,3.58,12.96,9.33,25.2,19.63,38.14,28.97,2.45,1.77,4.94,5.27,8.3,3.41,3.38-1.86,1.95-5.74,1.44-8.79-2.52-15.77-3.93-31.67-6.51-47.42-.99-6.07-.09-11.21,3.46-16.04,45.85-25.84,95.11-42.28,146.45-52.95,21.54-4.47,43.33-7.52,65.31-9.1,16.2-1.41,16.76-1.2,23.32,13.38,6.91,15.37,12.62,31.25,20.65,48.11,7.87-16.18,13.43-31.43,19.78-46.32,6.89-16.13,8.25-17.04,26.41-15,73.99,6.59,144.17,26.15,209.51,62,7.15,8.28,2.78,17.77,2,26.48-1.08,11.92-2.96,23.84-5.03,35.69-.59,3.38-2.18,7.8,.97,9.99,3.72,2.58,6.19-1.88,8.86-3.85,12.81-9.45,25.46-19.12,38.26-28.59,4.47-3.31,8.93-5.72,14.6-3.43,61.76,43.73,112.17,98.02,151.63,162.54,1.77,7.69-1.72,13.5-6.46,19.07-9.15,10.81-17.68,22.15-26.69,33.08-1.53,1.86-3.93,3.79-2.59,6.44,1.41,2.8,4.33,1.55,6.72,1.32,13.03-1.27,26.07-2.47,39.01-4.63,6.59-1.1,13.49-1.71,19.42,2.87,5.13,5.72,7.03,13.09,9.8,19.94,20.39,50.39,33.62,102.54,37.5,156.89-1.88,5.29-5.29,8.56-10.75,10.68-14.83,5.76-29.67,11.55-44.2,18.06-3.13,1.39-6.7,2.11-9.4,6.37,14.5,6.82,29.29,11.54,43.17,18.25,8.35,4.04,18.81,5.13,23.11,15.35-2.09,72.09-18.55,140.81-48.41,206.39-.71,1.58-1.98,2.92-2.99,4.37-5.24,4.28-11.26,3.71-17.28,2.61-13.62-2.49-27.44-3.85-41-6.79-3.78-.82-7.67-1.51-12.91,.49,5.99,12.32,15.73,21.68,23.04,32.64,6.23,9.33,15.43,16.98,16.57,29.2h-.05Z"/>
  <path class="cls-1" d="M52.84,778.14c27.67-6.18,55.8-9.29,86.31-14.11-19.11,26-36.7,49.92-54.31,73.87-12.39-19-23.84-38.49-32-59.75h0Z"/>
  <path class="cls-1" d="M862.82,100.53c-18.65,11.15-34.66,25.89-52.13,38.63-5.62,4.09-11.15,8.28-19.4,14.43,4.23-31.93,8.04-60.64,11.85-89.37,21.16,10.01,40.65,22.8,59.69,36.32h0Z"/>
  <path class="cls-1" d="M291.72,64.09c3.76,28.73,7.52,57.46,11.59,88.54-26.14-16.65-46.77-37.1-71.17-52.27,18.91-13.62,38.26-26.54,59.58-36.26Z"/>
  <path class="cls-1" d="M1010.06,835.68c-19.47-21.59-34.82-46.27-51.68-71.41,27.75,4.42,55.51,8.84,83.28,13.26-7.59,20.99-18.38,40.23-31.58,58.15h-.02Z"/>
  <path class="cls-1" d="M802.7,1029.96c-3.62-29.18-7.26-58.36-11.21-90.22,24.27,18.86,47.47,35.32,69.03,53.98-17.73,14.55-37.67,25.56-57.82,36.25h0Z"/>
  <path class="cls-1" d="M1093.05,566.77c-27.01-11.17-54.03-22.36-83.7-34.65,29.11-12.13,55.44-23.09,81.78-34.07,3.83,22.81,2.31,45.78,1.91,68.7v.02Z"/>
  <path class="cls-1" d="M3.4,500.7c26.38,7.36,50.5,20.27,76.3,31.17-25.49,12.37-51.16,23.47-77.61,32.8-4.26-21.42-1.1-42.68,1.32-63.97h-.02Z"/>
  <path class="cls-1" d="M78.82,267.39c16.6,13.97,28.59,32.16,43.36,47.8,4.28,4.52,8.07,9.48,13.54,15.97-24.74-1.88-47.17-3.69-69.62-5.24-6.54-.45-13.35-3.08-19.61,1.27,9.78-20.48,18.15-41.71,32.33-59.81Z"/>
  <path class="cls-1" d="M593.64,2.21c-11.54-1.97-16.77,3.55-20.62,14.22-7.27,20.25-16.24,39.92-25.61,62.47-7.34-17.61-13.59-32.57-19.8-47.54-2.31-5.57-5.17-11.01-6.72-16.81-2.47-9.29-7.67-13.83-17.44-12.51,11.87-3.43,24.03-1.5,36.02-1.5,18.04-.02,36.19-1.74,54.15,1.67h.02Z"/>
  <path class="cls-1" d="M226.12,989.35c5.88-.42,9.22-5.05,13.38-8.21,17.26-13.09,34.37-26.35,53.63-41.17-1.51,30.21-9.12,57.67-9.4,85.79-19.98-10.91-39.13-23.11-57.61-36.42v.02Z"/>
  <path class="cls-1" d="M516.21,1091.62c9.95-24.95,19.92-49.91,31.15-77.99,11.36,28.15,21.42,53.11,31.48,78.04-20.88,2.98-41.74,3.48-62.63-.05h0Z"/>
  <path class="cls-1" d="M1043.86,321.22c-26.33,3.29-52.67,6.56-82.25,10.25,12.25-15.3,22.8-28.02,32.84-41.12,6.86-8.96,15.66-16.53,20.03-27.32,10.88,18.85,22.88,37.12,29.39,58.17v.02Z"/>
  <path class="cls-1" d="M268.19,496.24c0-30.42,3.22-60.35,12.18-89.58,15.97-52.12,52.53-83.33,102.44-100.53,44.77-15.43,91.42-24.31,136.72-38.06,2.68-.82,5.62-1.03,8.46-1.1,5.06-.16,12.37-3.17,14.08,3.11,1.55,5.72-5.72,8.25-10.25,10.63-30.64,16.24-63.65,26.55-96.14,38.16-18.13,6.47-35.64,14.37-52.62,23.4-36.54,19.45-57.67,49.73-63.58,90.68-4.84,33.44-3.1,66.72,2.61,99.88,9.8,56.85,27.27,111.17,53.49,162.61,27.04,53.06,71.87,71.19,128.65,64.94,65.11-7.15,129.99-15.89,193.67-31.74,17.59-4.39,35.08-9.27,51.54-17.21,16.79-8.11,26.43-21.04,28.02-39.8,2.54-30-1.31-59.7-4.28-89.41-3.74-37.26-10.93-73.83-23.42-109.33-16.74-47.54-47.73-78.39-97.71-90.71-49.11-12.11-98.26-20.2-148.92-14.41-8.11,.92-16.25,2.35-24.08,4.58-39.01,11.1-54.08,29.67-53.3,70.23,.66,34.23,6.37,68.02,17.96,100.47,13.22,37.01,41.45,53.47,79.04,56.66,16.43,1.39,32.7,.7,48.77-3.39,22.88-5.81,34.59-22.59,31.69-46.03-2.47-19.99-9.5-38.63-17.37-57.01-1.46-3.39-4.82-6.91-1.25-10.75,3.65-3.95,8.4-5.15,13.68-4.02,4.98,1.08,9.55,3.18,13.19,6.7,25.35,24.45,43.21,53.06,45.85,88.95,2.47,33.55-13.36,59.34-44.84,71.27-42.74,16.2-86.41,18.2-129.2,.31-50.98-21.32-79.21-62.1-92.33-114.22-8.94-35.52-7.8-71.34,.49-106.84,11.68-50.05,45.66-77.26,98.25-80.62,50.15-3.2,98.49,6.51,146.48,19.11,14.44,3.79,29.08,7.34,42.95,12.74,36.32,14.13,60.45,41.68,78.79,74.91,22.57,40.89,34.45,85.68,47.24,130.14,7.78,27.01,16.51,53.77,20.24,81.77,5.78,43.45-8.46,77.63-46.63,100.79-12.84,7.8-26.29,14.53-40.72,18.51-80.98,22.39-162.05,44.6-247.01,45.1-26.57,.16-52.48-4.26-77.36-13.75-40.32-15.37-67.9-44.32-87.68-81.87-35.13-66.72-57.61-157.6-57.75-235.31h0Z"/>
  <path class="cls-1" d="M645.72,330.32c2.91-16.39,5.62-32.05,8.47-47.68,2.48-13.58-2.56-18.36-15.14-14.32-12.25,3.95-24.76,6.39-37.59,7.41-8.06,.64-14.55-1.97-19.68-8.39-5.32-6.66-11.08-12.98-16.41-19.65-1.83-2.26-6-4.3-3.53-7.88,2.28-3.31,6.51-2.8,9.87-1.64,7.05,2.44,14.06,5.08,20.81,8.25,7,3.29,13.31,2.73,20.41-.14,33.6-13.66,67.39-26.81,101.06-40.3,8.96-3.58,18.06-3.83,27.22-1.67,4.51,1.06,9.01,3.06,10.13,8.37,1.1,5.29-2.18,8.82-5.92,11.69-10.35,7.93-22.85,11.52-34.8,15.9-8.07,2.96-12.98,7.64-16.22,15.43-7.92,19.04-16.88,37.66-24.41,56.83-4.32,10.98-11.76,16.06-24.26,17.8l-.02-.03Z"/>
  <path class="cls-1" d="M662.51,217.36c-10.95,4.28-19.12,7.46-27.28,10.68-3.57,1.41-6.13-.52-8.72-2.44-5.13-3.78-10.37-7.45-15.35-11.4-2.63-2.09-7.4-3.57-6.14-7.66,1.04-3.41,5.66-3.83,8.98-4.92,3.79-1.25,7.76-1.58,11.48-.03,11.4,4.72,22.69,9.66,37.01,15.78l.02-.02Z"/>
</svg>