<?xml version="1.0" encoding="UTF-8"?>
<svg id="Calque_1" data-name="Calque 1" xmlns="http://www.w3.org/2000/svg" viewBox="0 0 1000.97 995.43">
  <defs>
    <style>
      .cls-1 {
        fill: #f5a529;
      }
    </style>
  </defs>
  <g>
    <path d="M998.8,809.33c0,8.91,.15,17.51-.12,26.1-.05,1.72-1.44,3.62-2.67,5.04-13.45,15.65-27,31.22-40.51,46.83-6.07,7.01-12.11,14.05-19.01,22.05h64.48v34.79h-124.58c0-8.53-.81-17.41,.37-26.03,.51-3.75,5.01-7.03,7.88-10.36,17.83-20.64,35.72-41.24,54.46-62.84h-59.98c-.28-3.6-.49-6.38-.71-9.16-.34-.15-.69-.3-1.04-.44-.91,2.04-1.86,4.06-2.72,6.12-15.08,36.45-30.13,72.9-45.23,109.34-5.92,14.29-13.57,27.34-26.88,36.13-19.3,12.75-54.41,11.02-72.99-3.83,5.39-10.63,10.82-21.35,15.39-30.35,8.67,1.94,16.39,4.24,24.27,5.14,3.26,.38,7.27-1.63,10.22-3.62,4.9-3.31,6.64-7.28,3.76-13.92-17.96-41.43-35.32-83.11-52.87-124.72-.76-1.79-1.44-3.61-2.63-6.62h12.32c6.45,0,12.89,0,19.34,0q16.82,0,23.11,15.81c8.71,21.86,17.44,43.71,26.91,67.46,3.21-7.78,5.76-13.89,8.25-20.03,7.87-19.4,15.78-38.79,23.52-58.24,1.24-3.12,2.39-5.09,6.38-5.08,49.12,.14,98.24,.09,147.36,.11,1.06,0,2.13,.18,3.9,.34Z"/>
    <path d="M542.98,819.5v-59.7h47.24v184.25h-44.55v-10.08c-8.58,3.88-16.68,9.31-25.54,11.25-38.17,8.38-75.95-16.17-80.22-57.36-2.43-23.42,1.91-44.32,18.27-61.92,19.89-21.4,61.02-25.89,81.92-7.99,.48,.41,1.12,.61,2.88,1.54Zm-27.76,89.5c17.13,.09,28.75-12.64,28.93-31.69,.18-19.28-11.13-32.59-27.84-32.76-17.76-.18-29.39,12.27-29.62,31.71-.23,19.44,11.28,32.65,28.53,32.74Z"/>
    <path d="M202.18,944.59c-15.68,0-31.01,.14-46.33-.18-1.94-.04-4.76-2.07-5.57-3.89-3.78-8.43-7.06-17.08-10.38-25.71-1.25-3.26-3.02-4.74-6.84-4.7-21.55,.2-43.11-.02-64.66,.29-2.08,.03-5.1,2.29-6.02,4.28-3.88,8.39-6.94,17.16-10.74,25.59-.84,1.86-3.46,4.09-5.3,4.13-15.1,.33-30.2,.19-46.35,.19,4-9.15,7.74-17.74,11.52-26.31,20.99-47.58,42.06-95.12,62.89-142.77,1.79-4.09,3.72-5.69,8.25-5.58,12.88,.32,25.78-.05,38.66,.28,2,.05,4.99,1.84,5.78,3.6,25.07,56.16,49.93,112.41,74.8,168.66,.16,.37,.12,.83,.28,2.13Zm-101.32-126.5c-7.77,19.42-14.95,37.39-22.18,55.48h44.5c-7.47-18.56-14.64-36.39-22.32-55.48Z"/>
    <path d="M732.15,944.4h-42.46v-16.73c-17.63,26.39-59.03,22.15-76.39,8.88-20.02-15.3-21.19-52.83,6.93-64.91,12-5.15,24.66-6.63,37.52-6.86,9.08-.16,18.16-.03,27.2-.03,.62-10.15-5.51-17.81-15.7-20.17-15.17-3.51-29.35-.31-43,6.4-1.95,.96-3.87,1.98-6.4,3.28-5.21-10.56-10.26-20.8-15.44-31.31,15.08-9.66,31.57-14.53,48.79-15.26,12.92-.55,26.4-.14,38.85,2.96,24.05,5.99,38.96,22.05,39.86,47.52,1.01,28.52,.23,57.11,.23,86.23Zm-47.08-54.45c-9.11,0-17.93-.37-26.7,.11-8.34,.45-14.11,6.09-14.34,12.88-.2,6.06,5.53,12.76,12.2,13.71,15.2,2.18,32.84-4.15,28.84-26.7Z"/>
    <path d="M293.03,764c-3.86,11.01-7.55,21.56-11.39,32.51-9.03-2.12-18.62-6.44-26.08,1.61-3.33,3.59-3.96,9.68-6.26,15.84h34.15v35.84h-30.83v94.36h-47.08v-94.01h-19.69v-35.9h18.74c.73-6.11,1.02-11.81,2.14-17.34,4.49-22.12,20.3-35.44,42.3-38.88,12.2-1.91,24.22-1.06,36,2.64,2.67,.84,5.2,2.14,7.99,3.31Z"/>
    <path d="M288.56,809.32h44.61v16c12.9-13.18,27.45-18.61,44.88-17.88v40.69c-7.86,1.03-15.85,1.11-23.24,3.26-12.49,3.64-18.87,13.33-18.92,26.39-.09,21.55-.1,43.09-.16,64.64,0,.41-.22,.83-.46,1.71h-46.7v-134.81Z"/>
    <path d="M430.34,808.97v135.14h-46.47c-.14-2.2-.41-4.53-.41-6.85-.03-40.19,.08-80.39-.14-120.58-.03-5.96,1.42-8.11,7.74-7.86,12.83,.51,25.69,.15,39.29,.15Z"/>
    <path d="M406.77,793.86c-18.97,0-29.63-10.74-28.07-28.52,.85-9.67,6.81-16.68,15.45-18.62,8.47-1.9,18.12-1.97,26.53,.1,11.18,2.76,16.95,14.46,15.15,25.57-1.83,11.23-12.37,20.78-23.74,21.45-1.77,.1-3.55,.01-5.32,.02Z"/>
  </g>
  <g>
    <path d="M789.65,521.67c-2.62,6.69-7.21,12.17-11.3,17.91-21.43,30.08-47.15,55.93-76.97,77.7-1.59,1.16-3.38,2.03-5.08,3.04-3.41-.08-6.22-1.28-9.03-3.42-9.29-7.07-18.31-14.55-29.08-21.71,.28,10.84,2.41,20.31,3.36,29.88,.6,5.98,3.23,12.23-1.34,17.87-41.88,22.28-86.56,34.87-133.8,38.58-1.97,.15-3.97-.04-5.95-.07-1.72-1.31-3.83-2-4.89-4.26-5.74-12.21-10.32-24.86-14.92-36.31-3.76,11.94-9.44,24.35-14.71,36.92-.88,2.1-3.06,2.4-4.57,3.62-24.1-.04-47.48-4.92-70.62-11-26.09-6.85-50.86-17.12-74.5-30.1-2.94-4.27-3.59-8.81-2.47-13.92,1.8-8.24,2.01-16.74,3.41-25.06,.25-1.48,1.15-3.35-.35-4.37-1.88-1.27-3.31,.61-4.6,1.64-7.15,5.64-14.52,10.99-21.68,16.62-3.08,2.43-6.26,4.1-10.27,2.36-35.19-26.11-65.03-57.22-88.19-94.55-.85-5.15,2.24-8.85,4.96-12.5,5.14-6.91,10.11-13.95,15.38-20.77,1.57-2.03,3.49-3.99,3.96-7.54-9.67,.27-18.82,2.74-28.11,3.87-5.43,.66-10.84,2.77-16.16-.36-8.53-15.64-14.05-32.44-19.09-49.43-7.41-25-11.58-50.56-12.93-76.58-.12-2.41,.2-4.84,.32-7.26,1.58-4.28,5.56-5.54,9.21-7.03,8.01-3.29,16.09-6.38,24.08-9.71,1.89-.79,5.04-.84,5-3.58-.03-2.25-2.91-2.36-4.62-3.22-8.52-4.32-17.65-7.22-26.37-11.08-2.73-1.21-5.14-2.53-6.48-5.3-2.8-3.01,.15-5.87,.45-8.69,3.61-34.57,12.58-67.75,26.46-99.61,3.58-4.8,8.49-4.63,13.78-4.08,10.47,1.09,21,1.49,33.12,2.32-4.89-7.97-11.02-12.82-15.46-18.97-3.91-5.42-10.25-9.22-11.26-16.61,.21-3.81,3-6.32,4.87-9.23,24.11-37.57,54.18-69.46,90.85-95.04,3.54-1.19,6.35,.19,9.2,2.24,8.1,5.82,15.72,12.26,23.81,18.09,1.53,1.11,3.08,3.29,5.18,2.13,2.1-1.16,1.21-3.59,.91-5.49-1.58-9.84-2.46-19.77-4.06-29.6-.62-3.79-.05-7,2.16-10.01,28.63-16.13,59.38-26.4,91.42-33.06,13.45-2.8,27.05-4.69,40.77-5.68,10.12-.88,10.47-.75,14.56,8.35,4.31,9.59,7.87,19.51,12.89,30.03,4.91-10.11,8.38-19.62,12.35-28.91,4.3-10.07,5.15-10.64,16.49-9.37,46.19,4.12,89.99,16.33,130.78,38.7,4.46,5.17,1.74,11.09,1.25,16.53-.68,7.44-1.85,14.89-3.14,22.28-.37,2.11-1.36,4.87,.61,6.24,2.33,1.61,3.87-1.18,5.53-2.4,8-5.9,15.89-11.94,23.89-17.84,2.79-2.06,5.57-3.58,9.12-2.13,38.55,27.3,70.02,61.19,94.66,101.46,1.11,4.8-1.08,8.43-4.03,11.91-5.72,6.75-11.04,13.83-16.67,20.65-.96,1.16-2.46,2.37-1.62,4.02,.88,1.75,2.7,.97,4.19,.82,8.14-.79,16.28-1.54,24.36-2.89,4.11-.69,8.42-1.07,12.12,1.79,3.21,3.57,4.38,8.17,6.12,12.45,12.73,31.46,20.98,64.01,23.41,97.94-1.17,3.3-3.3,5.35-6.71,6.67-9.26,3.6-18.52,7.21-27.6,11.27-1.95,.87-4.18,1.31-5.87,3.97,9.05,4.26,18.28,7.21,26.95,11.39,5.21,2.52,11.74,3.2,14.42,9.58-1.3,45-11.58,87.9-30.22,128.84-.45,.99-1.24,1.82-1.87,2.72-3.27,2.68-7.02,2.31-10.79,1.62-8.51-1.56-17.13-2.4-25.59-4.23-2.35-.51-4.79-.95-8.06,.3,3.73,7.69,9.81,13.54,14.39,20.38,3.89,5.82,9.64,10.6,10.34,18.23Z"/>
    <path class="cls-1" d="M192.11,485.76c17.27-3.86,34.84-5.8,53.87-8.8-11.93,16.23-22.91,31.17-33.9,46.11-7.74-11.86-14.88-24.03-19.98-37.3Z"/>
    <path class="cls-1" d="M697.74,62.75c-11.64,6.96-21.63,16.16-32.54,24.11-3.51,2.56-6.96,5.17-12.11,9,2.64-19.93,5.02-37.86,7.4-55.79,13.21,6.25,25.37,14.23,37.25,22.67Z"/>
    <path class="cls-1" d="M341.23,40.01c2.35,17.93,4.7,35.86,7.24,55.27-16.31-10.39-29.2-23.16-44.43-32.63,11.81-8.5,23.89-16.57,37.19-22.64Z"/>
    <path class="cls-1" d="M789.65,521.67c-12.16-13.48-21.73-28.88-32.26-44.58,17.33,2.76,34.66,5.52,51.99,8.27-4.74,13.1-11.47,25.11-19.72,36.3Z"/>
    <path class="cls-1" d="M660.2,642.95c-2.26-18.21-4.53-36.43-7-56.32,15.15,11.77,29.64,22.05,43.09,33.69-11.07,9.08-23.51,15.96-36.09,22.63Z"/>
    <path class="cls-1" d="M841.46,353.81c-16.86-6.98-33.73-13.96-52.25-21.62,18.17-7.57,34.61-14.42,51.05-21.27,2.39,14.24,1.45,28.57,1.19,42.89Z"/>
    <path class="cls-1" d="M161.24,312.56c16.46,4.59,31.52,12.65,47.63,19.45-15.92,7.72-31.94,14.66-48.45,20.48-2.67-13.37-.68-26.64,.82-39.93Z"/>
    <path class="cls-1" d="M208.33,166.92c10.37,8.72,17.85,20.07,27.07,29.84,2.67,2.82,5.04,5.92,8.46,9.97-15.45-1.18-29.45-2.3-43.46-3.27-4.09-.28-8.33-1.92-12.24,.8,6.1-12.78,11.33-26.04,20.18-37.34Z"/>
    <path class="cls-1" d="M529.7,1.38c-7.2-1.23-10.48,2.22-12.87,8.88-4.54,12.65-10.14,24.92-15.99,39-4.58-11-8.48-20.33-12.36-29.68-1.45-3.48-3.23-6.88-4.19-10.49-1.55-5.8-4.79-8.64-10.88-7.81,7.41-2.14,15-.93,22.48-.94,11.27-.01,22.6-1.08,33.81,1.04Z"/>
    <path class="cls-1" d="M300.28,617.61c3.67-.26,5.76-3.16,8.35-5.12,10.77-8.17,21.46-16.45,33.48-25.7-.95,18.85-5.69,35.99-5.87,53.55-12.47-6.81-24.43-14.43-35.96-22.73Z"/>
    <path class="cls-1" d="M481.36,681.44c6.22-15.58,12.44-31.15,19.44-48.69,7.09,17.58,13.37,33.15,19.65,48.72-13.03,1.85-26.06,2.17-39.09-.03Z"/>
    <path class="cls-1" d="M810.75,200.53c-16.44,2.05-32.88,4.1-51.34,6.4,7.65-9.54,14.23-17.48,20.49-25.66,4.28-5.59,9.77-10.32,12.5-17.05,6.79,11.77,14.28,23.17,18.35,36.31Z"/>
    <path class="cls-1" d="M326.54,309.78c0-18.98,2.01-37.67,7.6-55.92,9.97-32.54,32.79-52.02,63.95-62.76,27.95-9.63,57.08-15.18,85.34-23.76,1.68-.51,3.51-.64,5.28-.69,3.16-.1,7.72-1.98,8.79,1.94,.97,3.57-3.58,5.14-6.4,6.64-19.12,10.14-39.73,16.58-60.02,23.82-11.32,4.04-22.24,8.97-32.85,14.61-22.82,12.14-35.99,31.05-39.69,56.6-3.02,20.88-1.94,41.65,1.63,62.36,6.11,35.49,17.03,69.4,33.39,101.51,16.88,33.12,44.86,44.44,80.31,40.54,40.64-4.47,81.15-9.92,120.9-19.82,10.98-2.73,21.9-5.79,32.18-10.74,10.49-5.06,16.5-13.13,17.49-24.84,1.59-18.72-.81-37.27-2.67-55.81-2.33-23.26-6.82-46.09-14.62-68.25-10.45-29.67-29.8-48.94-60.99-56.63-30.65-7.56-61.34-12.61-92.96-8.99-5.06,.58-10.15,1.46-15.04,2.85-24.36,6.93-33.76,18.53-33.27,43.84,.41,21.37,3.97,42.47,11.21,62.73,8.25,23.1,25.88,33.38,49.34,35.37,10.25,.87,20.41,.43,30.45-2.11,14.29-3.63,21.59-14.1,19.78-28.73-1.55-12.48-5.93-24.11-10.84-35.58-.91-2.12-3.01-4.31-.78-6.72,2.29-2.47,5.24-3.22,8.53-2.51,3.11,.67,5.96,1.99,8.23,4.18,15.82,15.26,26.97,33.12,28.62,55.53,1.54,20.94-8.34,37.04-27.99,44.49-26.68,10.11-53.94,11.36-80.65,.19-31.83-13.3-49.45-38.76-57.64-71.3-5.58-22.17-4.87-44.54,.3-66.7,7.29-31.24,28.5-48.23,61.33-50.33,31.31-2,61.48,4.06,91.44,11.93,9.01,2.37,18.15,4.58,26.8,7.95,22.67,8.82,37.73,26.01,49.19,46.77,14.09,25.52,21.51,53.49,29.5,81.24,4.85,16.86,10.31,33.56,12.63,51.05,3.6,27.13-5.28,48.46-29.11,62.91-8.02,4.86-16.41,9.07-25.41,11.56-50.55,13.98-101.16,27.84-154.2,28.16-16.58,.1-32.76-2.66-48.3-8.58-25.16-9.59-42.39-27.67-54.73-51.1-21.94-41.65-35.97-98.39-36.05-146.9Z"/>
    <path class="cls-1" d="M562.22,206.21c1.81-10.23,3.5-20.01,5.29-29.76q2.33-12.72-9.45-8.94c-7.64,2.46-15.46,3.99-23.46,4.63-5.03,.4-9.09-1.23-12.28-5.23-3.33-4.16-6.92-8.11-10.25-12.26-1.14-1.42-3.75-2.68-2.2-4.93,1.42-2.06,4.07-1.75,6.16-1.03,4.4,1.53,8.78,3.17,12.99,5.15,4.37,2.05,8.31,1.71,12.74-.09,20.97-8.53,42.07-16.74,63.09-25.15,5.6-2.24,11.27-2.39,16.99-1.05,2.82,.66,5.63,1.91,6.32,5.22,.69,3.3-1.36,5.51-3.69,7.3-6.46,4.96-14.26,7.19-21.72,9.92-5.04,1.84-8.1,4.77-10.12,9.63-4.94,11.89-10.54,23.51-15.24,35.48-2.69,6.85-7.34,10.03-15.15,11.11Z"/>
    <path class="cls-1" d="M572.69,135.68c-6.84,2.68-11.94,4.66-17.03,6.67-2.22,.88-3.82-.33-5.44-1.52-3.21-2.36-6.47-4.65-9.58-7.12-1.64-1.3-4.62-2.23-3.83-4.78,.66-2.13,3.53-2.39,5.61-3.08,2.36-.78,4.85-.98,7.17-.02,7.11,2.95,14.17,6.03,23.11,9.85Z"/>
  </g>
</svg>